<?xml version="1.0" encoding="UTF-8" standalone="no"?>
<!DOCTYPE svg PUBLIC "-//W3C//DTD SVG 1.1//EN"
 "http://www.w3.org/Graphics/SVG/1.1/DTD/svg11.dtd">
<!-- Generated by graphviz version 2.43.0 (0)
 -->
<!-- Title: shopzada_full_pipeline Pages: 1 -->
<svg width="1316pt" height="661pt"
 viewBox="0.00 0.00 1316.00 661.00" xmlns="http://www.w3.org/2000/svg" xmlns:xlink="http://www.w3.org/1999/xlink">
<g id="graph0" class="graph" transform="scale(1 1) rotate(0) translate(4 657)">
<title>shopzada_full_pipeline</title>
<polygon fill="white" stroke="transparent" points="-4,4 -4,-657 1312,-657 1312,4 -4,4"/>
<text text-anchor="middle" x="654" y="-637.8" font-family="Times,serif" font-size="14.00">shopzada_full_pipeline</text>
<!-- finish_ingestion -->
<g id="node1" class="node">
<title>finish_ingestion</title>
<path fill="#e8f7e4" stroke="#000000" d="M615,-333C615,-333 511,-333 511,-333 505,-333 499,-327 499,-321 499,-321 499,-309 499,-309 499,-303 505,-297 511,-297 511,-297 615,-297 615,-297 621,-297 627,-303 627,-309 627,-309 627,-321 627,-321 627,-327 621,-333 615,-333"/>
<text text-anchor="middle" x="563" y="-311.3" font-family="Times,serif" font-size="14.00">finish_ingestion</text>
</g>
<!-- transform_dim_campaign -->
<g id="node15" class="node">
<title>transform_dim_campaign</title>
<path fill="#ffefeb" stroke="#000000" d="M848,-468C848,-468 675,-468 675,-468 669,-468 663,-462 663,-456 663,-456 663,-444 663,-444 663,-438 669,-432 675,-432 675,-432 848,-432 848,-432 854,-432 860,-438 860,-444 860,-444 860,-456 860,-456 860,-462 854,-468 848,-468"/>
<text text-anchor="middle" x="761.5" y="-446.3" font-family="Times,serif" font-size="14.00">transform_dim_campaign</text>
</g>
<!-- finish_ingestion&#45;&gt;transform_dim_campaign -->
<g id="edge1" class="edge">
<title>finish_ingestion&#45;&gt;transform_dim_campaign</title>
<path fill="none" stroke="black" d="M575.78,-333.2C592.35,-357.34 624.82,-399.62 663,-423 665.77,-424.7 668.65,-426.29 671.61,-427.78"/>
<polygon fill="black" stroke="black" points="670.14,-430.96 680.69,-431.98 673.08,-424.61 670.14,-430.96"/>
</g>
<!-- transform_dim_date -->
<g id="node16" class="node">
<title>transform_dim_date</title>
<path fill="#ffefeb" stroke="#000000" d="M829.5,-414C829.5,-414 693.5,-414 693.5,-414 687.5,-414 681.5,-408 681.5,-402 681.5,-402 681.5,-390 681.5,-390 681.5,-384 687.5,-378 693.5,-378 693.5,-378 829.5,-378 829.5,-378 835.5,-378 841.5,-384 841.5,-390 841.5,-390 841.5,-402 841.5,-402 841.5,-408 835.5,-414 829.5,-414"/>
<text text-anchor="middle" x="761.5" y="-392.3" font-family="Times,serif" font-size="14.00">transform_dim_date</text>
</g>
<!-- finish_ingestion&#45;&gt;transform_dim_date -->
<g id="edge2" class="edge">
<title>finish_ingestion&#45;&gt;transform_dim_date</title>
<path fill="none" stroke="black" d="M593.02,-333.14C612.31,-344.61 638.5,-359.08 663,-369 667.99,-371.02 673.17,-372.94 678.44,-374.76"/>
<polygon fill="black" stroke="black" points="677.4,-378.1 688,-377.92 679.6,-371.46 677.4,-378.1"/>
</g>
<!-- transform_dim_merchant -->
<g id="node17" class="node">
<title>transform_dim_merchant</title>
<path fill="#ffefeb" stroke="#000000" d="M848,-360C848,-360 675,-360 675,-360 669,-360 663,-354 663,-348 663,-348 663,-336 663,-336 663,-330 669,-324 675,-324 675,-324 848,-324 848,-324 854,-324 860,-330 860,-336 860,-336 860,-348 860,-348 860,-354 854,-360 848,-360"/>
<text text-anchor="middle" x="761.5" y="-338.3" font-family="Times,serif" font-size="14.00">transform_dim_merchant</text>
</g>
<!-- finish_ingestion&#45;&gt;transform_dim_merchant -->
<g id="edge3" class="edge">
<title>finish_ingestion&#45;&gt;transform_dim_merchant</title>
<path fill="none" stroke="black" d="M627.26,-323.69C635.4,-324.81 643.91,-325.98 652.53,-327.16"/>
<polygon fill="black" stroke="black" points="652.29,-330.66 662.67,-328.56 653.24,-323.73 652.29,-330.66"/>
</g>
<!-- transform_dim_product -->
<g id="node18" class="node">
<title>transform_dim_product</title>
<path fill="#ffefeb" stroke="#000000" d="M841.5,-306C841.5,-306 681.5,-306 681.5,-306 675.5,-306 669.5,-300 669.5,-294 669.5,-294 669.5,-282 669.5,-282 669.5,-276 675.5,-270 681.5,-270 681.5,-270 841.5,-270 841.5,-270 847.5,-270 853.5,-276 853.5,-282 853.5,-282 853.5,-294 853.5,-294 853.5,-300 847.5,-306 841.5,-306"/>
<text text-anchor="middle" x="761.5" y="-284.3" font-family="Times,serif" font-size="14.00">transform_dim_product</text>
</g>
<!-- finish_ingestion&#45;&gt;transform_dim_product -->
<g id="edge4" class="edge">
<title>finish_ingestion&#45;&gt;transform_dim_product</title>
<path fill="none" stroke="black" d="M627.26,-306.31C637.56,-304.89 648.46,-303.39 659.41,-301.89"/>
<polygon fill="black" stroke="black" points="660.03,-305.34 669.46,-300.51 659.07,-298.4 660.03,-305.34"/>
</g>
<!-- transform_dim_staff -->
<g id="node19" class="node">
<title>transform_dim_staff</title>
<path fill="#ffefeb" stroke="#000000" d="M829.5,-252C829.5,-252 693.5,-252 693.5,-252 687.5,-252 681.5,-246 681.5,-240 681.5,-240 681.5,-228 681.5,-228 681.5,-222 687.5,-216 693.5,-216 693.5,-216 829.5,-216 829.5,-216 835.5,-216 841.5,-222 841.5,-228 841.5,-228 841.5,-240 841.5,-240 841.5,-246 835.5,-252 829.5,-252"/>
<text text-anchor="middle" x="761.5" y="-230.3" font-family="Times,serif" font-size="14.00">transform_dim_staff</text>
</g>
<!-- finish_ingestion&#45;&gt;transform_dim_staff -->
<g id="edge5" class="edge">
<title>finish_ingestion&#45;&gt;transform_dim_staff</title>
<path fill="none" stroke="black" d="M593.02,-296.86C612.31,-285.39 638.5,-270.92 663,-261 667.99,-258.98 673.17,-257.06 678.44,-255.24"/>
<polygon fill="black" stroke="black" points="679.6,-258.54 688,-252.08 677.4,-251.9 679.6,-258.54"/>
</g>
<!-- transform_dim_user -->
<g id="node20" class="node">
<title>transform_dim_user</title>
<path fill="#ffefeb" stroke="#000000" d="M829.5,-198C829.5,-198 693.5,-198 693.5,-198 687.5,-198 681.5,-192 681.5,-186 681.5,-186 681.5,-174 681.5,-174 681.5,-168 687.5,-162 693.5,-162 693.5,-162 829.5,-162 829.5,-162 835.5,-162 841.5,-168 841.5,-174 841.5,-174 841.5,-186 841.5,-186 841.5,-192 835.5,-198 829.5,-198"/>
<text text-anchor="middle" x="761.5" y="-176.3" font-family="Times,serif" font-size="14.00">transform_dim_user</text>
</g>
<!-- finish_ingestion&#45;&gt;transform_dim_user -->
<g id="edge6" class="edge">
<title>finish_ingestion&#45;&gt;transform_dim_user</title>
<path fill="none" stroke="black" d="M575.78,-296.8C592.35,-272.66 624.82,-230.38 663,-207 665.97,-205.18 669.07,-203.48 672.26,-201.89"/>
<polygon fill="black" stroke="black" points="673.79,-205.04 681.44,-197.7 670.89,-198.67 673.79,-205.04"/>
</g>
<!-- ingest_campaign_data -->
<g id="node2" class="node">
<title>ingest_campaign_data</title>
<path fill="#ffefeb" stroke="#000000" d="M401,-630C401,-630 250,-630 250,-630 244,-630 238,-624 238,-618 238,-618 238,-606 238,-606 238,-600 244,-594 250,-594 250,-594 401,-594 401,-594 407,-594 413,-600 413,-606 413,-606 413,-618 413,-618 413,-624 407,-630 401,-630"/>
<text text-anchor="middle" x="325.5" y="-608.3" font-family="Times,serif" font-size="14.00">ingest_campaign_data</text>
</g>
<!-- ingest_campaign_data&#45;&gt;finish_ingestion -->
<g id="edge7" class="edge">
<title>ingest_campaign_data&#45;&gt;finish_ingestion</title>
<path fill="none" stroke="black" d="M413.35,-608.42C431.35,-604.16 449.04,-596.93 463,-585 536.82,-521.89 555.62,-398.79 560.39,-343.31"/>
<polygon fill="black" stroke="black" points="563.89,-343.39 561.17,-333.15 556.91,-342.86 563.89,-343.39"/>
</g>
<!-- ingest_line_item_prices -->
<g id="node3" class="node">
<title>ingest_line_item_prices</title>
<path fill="#ffefeb" stroke="#000000" d="M405,-576C405,-576 246,-576 246,-576 240,-576 234,-570 234,-564 234,-564 234,-552 234,-552 234,-546 240,-540 246,-540 246,-540 405,-540 405,-540 411,-540 417,-546 417,-552 417,-552 417,-564 417,-564 417,-570 411,-576 405,-576"/>
<text text-anchor="middle" x="325.5" y="-554.3" font-family="Times,serif" font-size="14.00">ingest_line_item_prices</text>
</g>
<!-- ingest_line_item_prices&#45;&gt;finish_ingestion -->
<g id="edge8" class="edge">
<title>ingest_line_item_prices&#45;&gt;finish_ingestion</title>
<path fill="none" stroke="black" d="M417.3,-552.45C433.74,-548.15 449.82,-541.4 463,-531 523.53,-483.22 548.45,-390.04 557.49,-343.25"/>
<polygon fill="black" stroke="black" points="560.97,-343.66 559.32,-333.2 554.08,-342.41 560.97,-343.66"/>
</g>
<!-- ingest_line_item_products -->
<g id="node4" class="node">
<title>ingest_line_item_products</title>
<path fill="#ffefeb" stroke="#000000" d="M415,-522C415,-522 236,-522 236,-522 230,-522 224,-516 224,-510 224,-510 224,-498 224,-498 224,-492 230,-486 236,-486 236,-486 415,-486 415,-486 421,-486 427,-492 427,-498 427,-498 427,-510 427,-510 427,-516 421,-522 415,-522"/>
<text text-anchor="middle" x="325.5" y="-500.3" font-family="Times,serif" font-size="14.00">ingest_line_item_products</text>
</g>
<!-- ingest_line_item_products&#45;&gt;finish_ingestion -->
<g id="edge9" class="edge">
<title>ingest_line_item_products&#45;&gt;finish_ingestion</title>
<path fill="none" stroke="black" d="M427,-494.14C439.81,-490.08 452.2,-484.53 463,-477 510.58,-443.83 539.52,-379.73 552.97,-342.88"/>
<polygon fill="black" stroke="black" points="556.34,-343.85 556.36,-333.26 549.74,-341.53 556.34,-343.85"/>
</g>
<!-- ingest_merchant_data -->
<g id="node5" class="node">
<title>ingest_merchant_data</title>
<path fill="#ffefeb" stroke="#000000" d="M400.5,-468C400.5,-468 250.5,-468 250.5,-468 244.5,-468 238.5,-462 238.5,-456 238.5,-456 238.5,-444 238.5,-444 238.5,-438 244.5,-432 250.5,-432 250.5,-432 400.5,-432 400.5,-432 406.5,-432 412.5,-438 412.5,-444 412.5,-444 412.5,-456 412.5,-456 412.5,-462 406.5,-468 400.5,-468"/>
<text text-anchor="middle" x="325.5" y="-446.3" font-family="Times,serif" font-size="14.00">ingest_merchant_data</text>
</g>
<!-- ingest_merchant_data&#45;&gt;finish_ingestion -->
<g id="edge10" class="edge">
<title>ingest_merchant_data&#45;&gt;finish_ingestion</title>
<path fill="none" stroke="black" d="M412.82,-441.5C430.16,-437.47 447.73,-431.58 463,-423 498.11,-403.27 527.66,-366.63 545.1,-341.55"/>
<polygon fill="black" stroke="black" points="548.04,-343.45 550.75,-333.2 542.24,-339.52 548.04,-343.45"/>
</g>
<!-- ingest_order_data -->
<g id="node6" class="node">
<title>ingest_order_data</title>
<path fill="#ffefeb" stroke="#000000" d="M386,-414C386,-414 265,-414 265,-414 259,-414 253,-408 253,-402 253,-402 253,-390 253,-390 253,-384 259,-378 265,-378 265,-378 386,-378 386,-378 392,-378 398,-384 398,-390 398,-390 398,-402 398,-402 398,-408 392,-414 386,-414"/>
<text text-anchor="middle" x="325.5" y="-392.3" font-family="Times,serif" font-size="14.00">ingest_order_data</text>
</g>
<!-- ingest_order_data&#45;&gt;finish_ingestion -->
<g id="edge11" class="edge">
<title>ingest_order_data&#45;&gt;finish_ingestion</title>
<path fill="none" stroke="black" d="M398.11,-386.07C419.36,-382 442.44,-376.44 463,-369 484.48,-361.23 506.94,-349.32 525.03,-338.67"/>
<polygon fill="black" stroke="black" points="527.29,-341.39 534.06,-333.24 523.69,-335.39 527.29,-341.39"/>
</g>
<!-- ingest_order_delays -->
<g id="node7" class="node">
<title>ingest_order_delays</title>
<path fill="#ffefeb" stroke="#000000" d="M393,-360C393,-360 258,-360 258,-360 252,-360 246,-354 246,-348 246,-348 246,-336 246,-336 246,-330 252,-324 258,-324 258,-324 393,-324 393,-324 399,-324 405,-330 405,-336 405,-336 405,-348 405,-348 405,-354 399,-360 393,-360"/>
<text text-anchor="middle" x="325.5" y="-338.3" font-family="Times,serif" font-size="14.00">ingest_order_delays</text>
</g>
<!-- ingest_order_delays&#45;&gt;finish_ingestion -->
<g id="edge12" class="edge">
<title>ingest_order_delays&#45;&gt;finish_ingestion</title>
<path fill="none" stroke="black" d="M405.25,-332.97C432.28,-329.87 462.4,-326.42 488.96,-323.37"/>
<polygon fill="black" stroke="black" points="489.42,-326.84 498.96,-322.23 488.62,-319.89 489.42,-326.84"/>
</g>
<!-- ingest_order_with_merchant -->
<g id="node8" class="node">
<title>ingest_order_with_merchant</title>
<path fill="#ffefeb" stroke="#000000" d="M423.5,-306C423.5,-306 227.5,-306 227.5,-306 221.5,-306 215.5,-300 215.5,-294 215.5,-294 215.5,-282 215.5,-282 215.5,-276 221.5,-270 227.5,-270 227.5,-270 423.5,-270 423.5,-270 429.5,-270 435.5,-276 435.5,-282 435.5,-282 435.5,-294 435.5,-294 435.5,-300 429.5,-306 423.5,-306"/>
<text text-anchor="middle" x="325.5" y="-284.3" font-family="Times,serif" font-size="14.00">ingest_order_with_merchant</text>
</g>
<!-- ingest_order_with_merchant&#45;&gt;finish_ingestion -->
<g id="edge13" class="edge">
<title>ingest_order_with_merchant&#45;&gt;finish_ingestion</title>
<path fill="none" stroke="black" d="M435.63,-300.51C453.57,-302.57 471.77,-304.66 488.56,-306.58"/>
<polygon fill="black" stroke="black" points="488.49,-310.1 498.83,-307.76 489.29,-303.14 488.49,-310.1"/>
</g>
<!-- ingest_product_list -->
<g id="node9" class="node">
<title>ingest_product_list</title>
<path fill="#ffefeb" stroke="#000000" d="M140,-333C140,-333 12,-333 12,-333 6,-333 0,-327 0,-321 0,-321 0,-309 0,-309 0,-303 6,-297 12,-297 12,-297 140,-297 140,-297 146,-297 152,-303 152,-309 152,-309 152,-321 152,-321 152,-327 146,-333 140,-333"/>
<text text-anchor="middle" x="76" y="-311.3" font-family="Times,serif" font-size="14.00">ingest_product_list</text>
</g>
<!-- ingest_product_list&#45;&gt;ingest_campaign_data -->
<g id="edge14" class="edge">
<title>ingest_product_list&#45;&gt;ingest_campaign_data</title>
<path fill="none" stroke="black" d="M78.69,-333.21C84.29,-382.31 106.76,-518.22 188,-585 199.63,-594.56 213.7,-601.07 228.32,-605.44"/>
<polygon fill="black" stroke="black" points="227.42,-608.82 237.98,-608.02 229.22,-602.06 227.42,-608.82"/>
</g>
<!-- ingest_product_list&#45;&gt;ingest_line_item_prices -->
<g id="edge15" class="edge">
<title>ingest_product_list&#45;&gt;ingest_line_item_prices</title>
<path fill="none" stroke="black" d="M80.72,-333.25C90.34,-375.41 120.15,-479.88 188,-531 198.61,-538.99 210.96,-544.8 223.81,-548.99"/>
<polygon fill="black" stroke="black" points="223.13,-552.43 233.71,-551.88 225.1,-545.72 223.13,-552.43"/>
</g>
<!-- ingest_product_list&#45;&gt;ingest_line_item_products -->
<g id="edge16" class="edge">
<title>ingest_product_list&#45;&gt;ingest_line_item_products</title>
<path fill="none" stroke="black" d="M83.88,-333.03C97.87,-367.1 133.06,-440.79 188,-477 196.01,-482.28 204.82,-486.57 213.99,-490.05"/>
<polygon fill="black" stroke="black" points="213.05,-493.43 223.65,-493.39 215.34,-486.82 213.05,-493.43"/>
</g>
<!-- ingest_product_list&#45;&gt;ingest_merchant_data -->
<g id="edge17" class="edge">
<title>ingest_product_list&#45;&gt;ingest_merchant_data</title>
<path fill="none" stroke="black" d="M90.15,-333.19C108.93,-357.72 145.86,-400.88 188,-423 200.51,-429.57 214.43,-434.55 228.47,-438.32"/>
<polygon fill="black" stroke="black" points="227.64,-441.72 238.18,-440.74 229.33,-434.92 227.64,-441.72"/>
</g>
<!-- ingest_product_list&#45;&gt;ingest_order_data -->
<g id="edge18" class="edge">
<title>ingest_product_list&#45;&gt;ingest_order_data</title>
<path fill="none" stroke="black" d="M108.61,-333.1C130.34,-344.84 160.17,-359.65 188,-369 205.39,-374.84 224.47,-379.59 242.72,-383.39"/>
<polygon fill="black" stroke="black" points="242.26,-386.86 252.75,-385.4 243.63,-380 242.26,-386.86"/>
</g>
<!-- ingest_product_list&#45;&gt;ingest_order_delays -->
<g id="edge19" class="edge">
<title>ingest_product_list&#45;&gt;ingest_order_delays</title>
<path fill="none" stroke="black" d="M152.27,-323.21C178.61,-326.08 208.44,-329.34 235.78,-332.32"/>
<polygon fill="black" stroke="black" points="235.41,-335.8 245.73,-333.41 236.17,-328.84 235.41,-335.8"/>
</g>
<!-- ingest_product_list&#45;&gt;ingest_order_with_merchant -->
<g id="edge20" class="edge">
<title>ingest_product_list&#45;&gt;ingest_order_with_merchant</title>
<path fill="none" stroke="black" d="M152.27,-306.79C169.07,-304.96 187.28,-302.97 205.37,-301"/>
<polygon fill="black" stroke="black" points="205.83,-304.47 215.39,-299.9 205.07,-297.51 205.83,-304.47"/>
</g>
<!-- ingest_staff_data -->
<g id="node10" class="node">
<title>ingest_staff_data</title>
<path fill="#ffefeb" stroke="#000000" d="M382,-252C382,-252 269,-252 269,-252 263,-252 257,-246 257,-240 257,-240 257,-228 257,-228 257,-222 263,-216 269,-216 269,-216 382,-216 382,-216 388,-216 394,-222 394,-228 394,-228 394,-240 394,-240 394,-246 388,-252 382,-252"/>
<text text-anchor="middle" x="325.5" y="-230.3" font-family="Times,serif" font-size="14.00">ingest_staff_data</text>
</g>
<!-- ingest_product_list&#45;&gt;ingest_staff_data -->
<g id="edge21" class="edge">
<title>ingest_product_list&#45;&gt;ingest_staff_data</title>
<path fill="none" stroke="black" d="M108.61,-296.9C130.34,-285.16 160.17,-270.35 188,-261 206.72,-254.71 227.4,-249.69 246.89,-245.76"/>
<polygon fill="black" stroke="black" points="247.8,-249.15 256.95,-243.8 246.47,-242.28 247.8,-249.15"/>
</g>
<!-- ingest_transactional_campaign_data -->
<g id="node11" class="node">
<title>ingest_transactional_campaign_data</title>
<path fill="#ffefeb" stroke="#000000" d="M451,-198C451,-198 200,-198 200,-198 194,-198 188,-192 188,-186 188,-186 188,-174 188,-174 188,-168 194,-162 200,-162 200,-162 451,-162 451,-162 457,-162 463,-168 463,-174 463,-174 463,-186 463,-186 463,-192 457,-198 451,-198"/>
<text text-anchor="middle" x="325.5" y="-176.3" font-family="Times,serif" font-size="14.00">ingest_transactional_campaign_data</text>
</g>
<!-- ingest_product_list&#45;&gt;ingest_transactional_campaign_data -->
<g id="edge22" class="edge">
<title>ingest_product_list&#45;&gt;ingest_transactional_campaign_data</title>
<path fill="none" stroke="black" d="M90.15,-296.81C108.93,-272.28 145.86,-229.12 188,-207 191.51,-205.16 195.13,-203.44 198.83,-201.84"/>
<polygon fill="black" stroke="black" points="200.2,-205.06 208.19,-198.1 197.6,-198.56 200.2,-205.06"/>
</g>
<!-- ingest_user_credit_card -->
<g id="node12" class="node">
<title>ingest_user_credit_card</title>
<path fill="#ffefeb" stroke="#000000" d="M406.5,-144C406.5,-144 244.5,-144 244.5,-144 238.5,-144 232.5,-138 232.5,-132 232.5,-132 232.5,-120 232.5,-120 232.5,-114 238.5,-108 244.5,-108 244.5,-108 406.5,-108 406.5,-108 412.5,-108 418.5,-114 418.5,-120 418.5,-120 418.5,-132 418.5,-132 418.5,-138 412.5,-144 406.5,-144"/>
<text text-anchor="middle" x="325.5" y="-122.3" font-family="Times,serif" font-size="14.00">ingest_user_credit_card</text>
</g>
<!-- ingest_product_list&#45;&gt;ingest_user_credit_card -->
<g id="edge23" class="edge">
<title>ingest_product_list&#45;&gt;ingest_user_credit_card</title>
<path fill="none" stroke="black" d="M83.88,-296.97C97.87,-262.9 133.06,-189.21 188,-153 198.43,-146.13 210.2,-140.93 222.37,-137.01"/>
<polygon fill="black" stroke="black" points="223.57,-140.31 232.18,-134.14 221.6,-133.59 223.57,-140.31"/>
</g>
<!-- ingest_user_data -->
<g id="node13" class="node">
<title>ingest_user_data</title>
<path fill="#ffefeb" stroke="#000000" d="M382,-90C382,-90 269,-90 269,-90 263,-90 257,-84 257,-78 257,-78 257,-66 257,-66 257,-60 263,-54 269,-54 269,-54 382,-54 382,-54 388,-54 394,-60 394,-66 394,-66 394,-78 394,-78 394,-84 388,-90 382,-90"/>
<text text-anchor="middle" x="325.5" y="-68.3" font-family="Times,serif" font-size="14.00">ingest_user_data</text>
</g>
<!-- ingest_product_list&#45;&gt;ingest_user_data -->
<g id="edge24" class="edge">
<title>ingest_product_list&#45;&gt;ingest_user_data</title>
<path fill="none" stroke="black" d="M80.72,-296.75C90.34,-254.59 120.15,-150.12 188,-99 204.83,-86.32 226.04,-79.15 246.69,-75.2"/>
<polygon fill="black" stroke="black" points="247.47,-78.62 256.76,-73.51 246.32,-71.71 247.47,-78.62"/>
</g>
<!-- ingest_user_job -->
<g id="node14" class="node">
<title>ingest_user_job</title>
<path fill="#ffefeb" stroke="#000000" d="M377.5,-36C377.5,-36 273.5,-36 273.5,-36 267.5,-36 261.5,-30 261.5,-24 261.5,-24 261.5,-12 261.5,-12 261.5,-6 267.5,0 273.5,0 273.5,0 377.5,0 377.5,0 383.5,0 389.5,-6 389.5,-12 389.5,-12 389.5,-24 389.5,-24 389.5,-30 383.5,-36 377.5,-36"/>
<text text-anchor="middle" x="325.5" y="-14.3" font-family="Times,serif" font-size="14.00">ingest_user_job</text>
</g>
<!-- ingest_product_list&#45;&gt;ingest_user_job -->
<g id="edge25" class="edge">
<title>ingest_product_list&#45;&gt;ingest_user_job</title>
<path fill="none" stroke="black" d="M78.69,-296.79C84.29,-247.69 106.76,-111.78 188,-45 205.64,-30.5 228.86,-23.03 251.14,-19.37"/>
<polygon fill="black" stroke="black" points="251.87,-22.8 261.29,-17.94 250.9,-15.87 251.87,-22.8"/>
</g>
<!-- ingest_staff_data&#45;&gt;finish_ingestion -->
<g id="edge26" class="edge">
<title>ingest_staff_data&#45;&gt;finish_ingestion</title>
<path fill="none" stroke="black" d="M394.26,-243.21C416.55,-247.34 441.19,-253.11 463,-261 484.48,-268.77 506.94,-280.68 525.03,-291.33"/>
<polygon fill="black" stroke="black" points="523.69,-294.61 534.06,-296.76 527.29,-288.61 523.69,-294.61"/>
</g>
<!-- ingest_transactional_campaign_data&#45;&gt;finish_ingestion -->
<g id="edge27" class="edge">
<title>ingest_transactional_campaign_data&#45;&gt;finish_ingestion</title>
<path fill="none" stroke="black" d="M444.08,-198.08C450.64,-200.67 457,-203.63 463,-207 498.11,-226.73 527.66,-263.37 545.1,-288.45"/>
<polygon fill="black" stroke="black" points="542.24,-290.48 550.75,-296.8 548.04,-286.55 542.24,-290.48"/>
</g>
<!-- ingest_user_credit_card&#45;&gt;finish_ingestion -->
<g id="edge28" class="edge">
<title>ingest_user_credit_card&#45;&gt;finish_ingestion</title>
<path fill="none" stroke="black" d="M418.85,-133.47C434.51,-137.67 449.92,-143.88 463,-153 510.58,-186.17 539.52,-250.27 552.97,-287.12"/>
<polygon fill="black" stroke="black" points="549.74,-288.47 556.36,-296.74 556.34,-286.15 549.74,-288.47"/>
</g>
<!-- ingest_user_data&#45;&gt;finish_ingestion -->
<g id="edge29" class="edge">
<title>ingest_user_data&#45;&gt;finish_ingestion</title>
<path fill="none" stroke="black" d="M394.26,-72.98C418.06,-76.35 443.66,-83.73 463,-99 523.53,-146.78 548.45,-239.96 557.49,-286.75"/>
<polygon fill="black" stroke="black" points="554.08,-287.59 559.32,-296.8 560.97,-286.34 554.08,-287.59"/>
</g>
<!-- ingest_user_job&#45;&gt;finish_ingestion -->
<g id="edge30" class="edge">
<title>ingest_user_job&#45;&gt;finish_ingestion</title>
<path fill="none" stroke="black" d="M389.69,-17.52C415.01,-20.39 442.89,-27.81 463,-45 536.82,-108.11 555.62,-231.21 560.39,-286.69"/>
<polygon fill="black" stroke="black" points="556.91,-287.14 561.17,-296.85 563.89,-286.61 556.91,-287.14"/>
</g>
<!-- transform_fact_orders -->
<g id="node24" class="node">
<title>transform_fact_orders</title>
<path fill="#ffefeb" stroke="#000000" d="M1059,-333C1059,-333 908,-333 908,-333 902,-333 896,-327 896,-321 896,-321 896,-309 896,-309 896,-303 902,-297 908,-297 908,-297 1059,-297 1059,-297 1065,-297 1071,-303 1071,-309 1071,-309 1071,-321 1071,-321 1071,-327 1065,-333 1059,-333"/>
<text text-anchor="middle" x="983.5" y="-311.3" font-family="Times,serif" font-size="14.00">transform_fact_orders</text>
</g>
<!-- transform_dim_campaign&#45;&gt;transform_fact_orders -->
<g id="edge31" class="edge">
<title>transform_dim_campaign&#45;&gt;transform_fact_orders</title>
<path fill="none" stroke="black" d="M840.41,-431.92C847.19,-429.31 853.82,-426.35 860,-423 899.59,-401.56 937.21,-365.15 960.06,-340.61"/>
<polygon fill="black" stroke="black" points="962.77,-342.83 966.94,-333.09 957.61,-338.1 962.77,-342.83"/>
</g>
<!-- transform_dim_date&#45;&gt;transform_fact_orders -->
<g id="edge32" class="edge">
<title>transform_dim_date&#45;&gt;transform_fact_orders</title>
<path fill="none" stroke="black" d="M832.39,-377.97C841.74,-375.17 851.15,-372.16 860,-369 885.57,-359.88 913.31,-347.84 935.92,-337.44"/>
<polygon fill="black" stroke="black" points="937.67,-340.48 945.27,-333.1 934.73,-334.14 937.67,-340.48"/>
</g>
<!-- transform_dim_merchant&#45;&gt;transform_fact_orders -->
<g id="edge33" class="edge">
<title>transform_dim_merchant&#45;&gt;transform_fact_orders</title>
<path fill="none" stroke="black" d="M860.28,-330C868.68,-328.97 877.18,-327.93 885.58,-326.9"/>
<polygon fill="black" stroke="black" points="886.25,-330.34 895.75,-325.65 885.4,-323.39 886.25,-330.34"/>
</g>
<!-- transform_dim_product&#45;&gt;transform_fact_orders -->
<g id="edge34" class="edge">
<title>transform_dim_product&#45;&gt;transform_fact_orders</title>
<path fill="none" stroke="black" d="M853.57,-299.18C864.14,-300.47 874.95,-301.8 885.6,-303.11"/>
<polygon fill="black" stroke="black" points="885.39,-306.61 895.74,-304.35 886.24,-299.66 885.39,-306.61"/>
</g>
<!-- transform_dim_staff&#45;&gt;transform_fact_orders -->
<g id="edge35" class="edge">
<title>transform_dim_staff&#45;&gt;transform_fact_orders</title>
<path fill="none" stroke="black" d="M832.39,-252.03C841.74,-254.83 851.15,-257.84 860,-261 885.57,-270.12 913.31,-282.16 935.92,-292.56"/>
<polygon fill="black" stroke="black" points="934.73,-295.86 945.27,-296.9 937.67,-289.52 934.73,-295.86"/>
</g>
<!-- transform_dim_user&#45;&gt;transform_fact_orders -->
<g id="edge36" class="edge">
<title>transform_dim_user&#45;&gt;transform_fact_orders</title>
<path fill="none" stroke="black" d="M840.41,-198.08C847.19,-200.69 853.82,-203.65 860,-207 899.59,-228.44 937.21,-264.85 960.06,-289.39"/>
<polygon fill="black" stroke="black" points="957.61,-291.9 966.94,-296.91 962.77,-287.17 957.61,-291.9"/>
</g>
<!-- transform_fact_campaign -->
<g id="node21" class="node">
<title>transform_fact_campaign</title>
<path fill="#ffefeb" stroke="#000000" d="M1294,-387C1294,-387 1121,-387 1121,-387 1115,-387 1109,-381 1109,-375 1109,-375 1109,-363 1109,-363 1109,-357 1115,-351 1121,-351 1121,-351 1294,-351 1294,-351 1300,-351 1306,-357 1306,-363 1306,-363 1306,-375 1306,-375 1306,-381 1300,-387 1294,-387"/>
<text text-anchor="middle" x="1207.5" y="-365.3" font-family="Times,serif" font-size="14.00">transform_fact_campaign</text>
</g>
<!-- transform_fact_delays -->
<g id="node22" class="node">
<title>transform_fact_delays</title>
<path fill="#ffefeb" stroke="#000000" d="M1282.5,-333C1282.5,-333 1132.5,-333 1132.5,-333 1126.5,-333 1120.5,-327 1120.5,-321 1120.5,-321 1120.5,-309 1120.5,-309 1120.5,-303 1126.5,-297 1132.5,-297 1132.5,-297 1282.5,-297 1282.5,-297 1288.5,-297 1294.5,-303 1294.5,-309 1294.5,-309 1294.5,-321 1294.5,-321 1294.5,-327 1288.5,-333 1282.5,-333"/>
<text text-anchor="middle" x="1207.5" y="-311.3" font-family="Times,serif" font-size="14.00">transform_fact_delays</text>
</g>
<!-- transform_fact_line_items -->
<g id="node23" class="node">
<title>transform_fact_line_items</title>
<path fill="#ffefeb" stroke="#000000" d="M1296,-279C1296,-279 1119,-279 1119,-279 1113,-279 1107,-273 1107,-267 1107,-267 1107,-255 1107,-255 1107,-249 1113,-243 1119,-243 1119,-243 1296,-243 1296,-243 1302,-243 1308,-249 1308,-255 1308,-255 1308,-267 1308,-267 1308,-273 1302,-279 1296,-279"/>
<text text-anchor="middle" x="1207.5" y="-257.3" font-family="Times,serif" font-size="14.00">transform_fact_line_items</text>
</g>
<!-- transform_fact_orders&#45;&gt;transform_fact_campaign -->
<g id="edge37" class="edge">
<title>transform_fact_orders&#45;&gt;transform_fact_campaign</title>
<path fill="none" stroke="black" d="M1058.73,-333.06C1079.19,-338.03 1101.52,-343.47 1122.49,-348.57"/>
<polygon fill="black" stroke="black" points="1121.79,-352 1132.34,-350.96 1123.45,-345.2 1121.79,-352"/>
</g>
<!-- transform_fact_orders&#45;&gt;transform_fact_delays -->
<g id="edge38" class="edge">
<title>transform_fact_orders&#45;&gt;transform_fact_delays</title>
<path fill="none" stroke="black" d="M1071.28,-315C1083.95,-315 1097.06,-315 1109.91,-315"/>
<polygon fill="black" stroke="black" points="1110.14,-318.5 1120.14,-315 1110.14,-311.5 1110.14,-318.5"/>
</g>
<!-- transform_fact_orders&#45;&gt;transform_fact_line_items -->
<g id="edge39" class="edge">
<title>transform_fact_orders&#45;&gt;transform_fact_line_items</title>
<path fill="none" stroke="black" d="M1058.73,-296.94C1079.19,-291.97 1101.52,-286.53 1122.49,-281.43"/>
<polygon fill="black" stroke="black" points="1123.45,-284.8 1132.34,-279.04 1121.79,-278 1123.45,-284.8"/>
</g>
</g>
</svg>
